# xmcd
#
# Track frame offsets: 
#        150
#        14886
#        29289
#        39774
#        48547
#        60922
#        77243
#        91606
#        108226
#        120628
#        133421
#        146229
#        157867
#        170034
#        182292
#        194430
#        205286
#        220574
#        236162
#        252690
#        265103
#        280463
#        292841
#        303972
#
# Disc length: 4232 seconds
#
# Revision: 4
# Processed by: cddbd v1.5.2PL0 Copyright (c) Steve Scherf et al.
# Submitted via: ExactAudioCopyFreeDBPlugin 1.0
#
DISCID=5a108618
DTITLE=Roger Whittaker - 1972 - 24 Golden Hits
DYEAR=1972
DGENRE=Pop
TTITLE0=I Don't Believe In If Anymore
TTITLE1=Durham Town
TTITLE2=Good Morning Starshine
TTITLE3=Mexican Whistler
TTITLE4=Morning Has Broken
TTITLE5=Mamy Blue
TTITLE6=River Lady
TTITLE7=Streets Of London
TTITLE8=If I Were A Rich Man
TTITLE9=San Diego Wine
TTITLE10=Greensleeves
TTITLE11=By The Time I Get To Phoenix
TTITLE12=Swaggy
TTITLE13=Why
TTITLE14=Moonshadow
TTITLE15=New World In The Morning
TTITLE16=Scarborough Fair (Canticle)
TTITLE17=Dirty Old Town
TTITLE18=The Last Farewell
TTITLE19=Mistral
TTITLE20=From Both Sides Now
TTITLE21=The Sky Boat Song
TTITLE22=Morning Please Don't Come
TTITLE23=I Dreamed A Dream
EXTD=
EXTT0=
EXTT1=
EXTT2=
EXTT3=
EXTT4=
EXTT5=
EXTT6=
EXTT7=
EXTT8=
EXTT9=
EXTT10=
EXTT11=
EXTT12=
EXTT13=
EXTT14=
EXTT15=
EXTT16=
EXTT17=
EXTT18=
EXTT19=
EXTT20=
EXTT21=
EXTT22=
EXTT23=
PLAYORDER=
